<?xml version="1.0" standalone="no"?>
<!DOCTYPE svg PUBLIC "-//W3C//DTD SVG 20010904//EN"
 "http://www.w3.org/TR/2001/REC-SVG-20010904/DTD/svg10.dtd">
<svg version="1.0" xmlns="http://www.w3.org/2000/svg"
 width="512.000000pt" height="512.000000pt" viewBox="0 0 512.000000 512.000000"
 preserveAspectRatio="xMidYMid meet">
<metadata>
Created by potrace 1.16, written by Peter Selinger 2001-2019
</metadata>
<g transform="translate(0.000000,512.000000) scale(0.100000,-0.100000)"
fill="#000000" stroke="none">
<path d="M2286 4110 c-160 -25 -337 -88 -479 -170 -131 -75 -132 -89 -2 -24
144 72 295 124 435 150 129 24 382 25 507 1 248 -46 531 -177 778 -359 25 -19
16 -7 -25 32 -164 155 -420 288 -670 347 -89 21 -135 26 -295 28 -104 2 -216
0 -249 -5z"/>
<path d="M2335 3929 c-327 -42 -656 -221 -883 -481 -218 -249 -333 -545 -349
-893 l-6 -131 -28 -17 c-31 -17 -34 -34 -19 -102 8 -35 9 -33 4 17 l-5 57 40
26 41 25 0 83 c0 160 42 367 111 542 125 321 446 630 771 741 93 32 133 40
263 59 91 13 111 13 143 1 20 -8 84 -17 142 -20 189 -9 365 -57 544 -149 130
-66 231 -143 341 -258 192 -202 299 -407 355 -679 19 -91 21 -127 17 -265 -7
-220 -43 -345 -153 -536 -27 -46 -48 -86 -48 -89 0 -3 -9 -13 -20 -23 -12 -9
-16 -17 -11 -16 6 1 13 1 17 0 10 -2 -12 -73 -34 -106 -43 -65 76 75 131 155
101 147 168 306 196 468 19 110 19 316 0 428 -69 394 -344 781 -700 988 -254
147 -571 211 -860 175z"/>
<path d="M2115 3761 c-179 -63 -363 -180 -495 -317 l-75 -78 85 75 c161 143
303 233 470 300 58 23 107 43 109 45 10 9 -19 1 -94 -25z"/>
<path d="M2683 3713 c9 -2 23 -2 30 0 6 3 -1 5 -18 5 -16 0 -22 -2 -12 -5z"/>
<path d="M2810 3685 c229 -63 401 -165 575 -340 143 -144 248 -325 302 -521
26 -91 28 -113 27 -274 0 -161 -2 -182 -27 -263 -134 -436 -527 -767 -984
-828 -122 -16 -285 -6 -403 26 -286 78 -514 260 -689 550 -155 259 -158 666
-5 955 46 87 152 245 160 238 2 -3 -7 -33 -21 -69 l-25 -64 27 35 c15 19 60
69 100 111 l73 75 -24 23 -24 23 -74 -70 c-166 -158 -304 -413 -333 -617 -5
-36 -15 -57 -34 -75 -15 -14 -30 -32 -34 -42 -6 -17 15 -197 34 -283 50 -230
136 -394 291 -556 90 -95 166 -153 269 -204 190 -96 309 -125 518 -125 197 -1
407 50 584 142 215 112 417 317 531 541 81 159 116 305 116 483 0 299 -112
563 -336 794 -111 114 -232 204 -359 266 -86 41 -257 95 -300 93 -11 0 18 -11
65 -24z"/>
<path d="M2345 3413 c-301 -64 -570 -299 -662 -578 -23 -71 -26 -99 -29 -240
-2 -148 -2 -152 6 -60 15 185 62 327 152 460 109 165 335 322 537 377 100 27
317 30 406 5 75 -21 82 -15 13 11 -117 44 -289 54 -423 25z"/>
<path d="M3746 3334 c-4 -11 12 -45 45 -96 126 -197 197 -434 204 -677 3 -115
8 -130 44 -131 11 0 13 -12 8 -57 -17 -156 -99 -387 -195 -546 -42 -70 -51
-92 -40 -98 25 -16 34 -9 85 79 120 201 199 436 206 612 2 53 1 54 -28 60
l-30 5 -7 102 c-17 256 -100 510 -230 707 -37 55 -52 65 -62 40z"/>
<path d="M2383 3300 c-39 -10 -89 -28 -110 -40 -39 -22 -35 -21 57 11 30 11
89 26 130 34 57 10 66 13 35 14 -22 0 -72 -9 -112 -19z"/>
<path d="M2672 3303 c-16 -29 2 -50 61 -68 100 -33 190 -88 272 -166 76 -73
79 -78 67 -103 -18 -40 -68 -36 -113 10 -54 56 -174 132 -247 155 -135 43
-296 26 -424 -46 -184 -103 -303 -334 -269 -520 51 -277 344 -424 594 -298 60
30 128 97 158 154 42 84 34 240 -14 258 -12 5 -35 23 -52 40 -33 35 -92 55
-135 46 -67 -15 -119 -91 -120 -174 0 -37 5 -49 40 -83 39 -39 42 -40 98 -36
64 4 106 29 138 81 l19 32 3 -49 c6 -93 -66 -194 -177 -248 -33 -16 -69 -24
-126 -26 -105 -5 -174 20 -250 89 -150 138 -167 365 -40 538 51 70 103 111
194 154 53 25 79 31 161 35 148 7 257 -31 363 -128 69 -63 112 -129 144 -222
96 -276 -79 -636 -367 -754 -86 -36 -228 -45 -295 -19 -25 9 -43 20 -40 24 2
5 34 11 69 15 132 13 286 77 378 156 89 77 161 211 179 335 25 180 -71 369
-228 446 -40 19 -65 23 -143 24 -90 0 -99 -2 -158 -34 -63 -34 -110 -80 -145
-140 -14 -24 -6 -19 35 22 136 136 337 149 466 32 201 -181 144 -547 -111
-715 -91 -59 -195 -89 -345 -99 -137 -8 -159 -19 -148 -73 3 -16 0 -31 -10
-38 -20 -17 -76 23 -169 122 -56 59 -88 105 -126 181 -51 101 -60 92 -13 -13
47 -104 149 -220 262 -299 32 -22 34 -22 52 -6 19 17 23 17 82 -3 35 -11 91
-26 125 -32 144 -28 433 13 453 64 4 12 33 41 63 64 29 23 89 78 131 122 73
76 111 103 84 60 -20 -32 0 -35 32 -5 40 38 106 174 126 260 22 93 22 251 0
335 -62 240 -232 436 -455 526 -89 36 -117 40 -129 17z m-11 -632 c19 -20 29
-40 29 -60 0 -76 -97 -114 -146 -57 -75 87 36 198 117 117z"/>
<path d="M2039 3183 c-30 -26 -67 -63 -84 -83 -16 -19 2 -6 40 29 39 36 79 73
90 83 42 39 5 15 -46 -29z"/>
<path d="M1062 3123 c-36 -98 -90 -323 -103 -428 -59 -473 100 -957 421 -1283
107 -108 129 -122 205 -122 52 0 69 -5 115 -35 80 -50 300 -159 362 -178 98
-31 192 -47 278 -46 l85 1 -78 14 c-188 34 -409 128 -579 247 -144 100 -133
96 -166 64 -15 -15 -34 -27 -41 -27 -21 0 -189 176 -261 272 -160 214 -273
480 -310 728 -16 110 -14 329 5 450 16 103 65 312 85 366 6 15 9 29 7 31 -3 2
-14 -22 -25 -54z"/>
<path d="M1640 2959 c-7 -11 -10 -23 -7 -25 2 -2 9 7 15 21 14 30 7 33 -8 4z"/>
<path d="M1598 2867 c-15 -29 -34 -87 -42 -130 -9 -43 -20 -86 -26 -97 -14
-26 -13 -30 8 -30 15 0 20 14 29 79 7 44 23 113 37 153 13 40 23 74 22 75 -1
1 -13 -22 -28 -50z"/>
<path d="M1912 2808 c-30 -98 -35 -163 -18 -253 30 -155 141 -325 264 -404 66
-42 79 -40 16 3 -115 77 -222 235 -259 381 -20 78 -18 174 5 260 23 88 18 97
-8 13z"/>
<path d="M2291 2542 c-3 -66 118 -194 181 -192 7 1 -3 8 -22 16 -64 27 -129
103 -151 174 -7 24 -7 24 -8 2z"/>
<path d="M3631 2462 c0 -13 -10 -59 -21 -102 -78 -306 -296 -572 -592 -722
-282 -144 -604 -148 -898 -13 -77 36 -70 21 10 -20 58 -29 196 -71 280 -85
519 -82 1073 294 1206 819 14 53 23 107 21 121 -4 24 -4 24 -6 2z"/>
<path d="M1157 2431 c-3 -11 -1 -56 4 -98 27 -221 127 -464 270 -652 157 -209
443 -408 719 -501 126 -42 334 -77 355 -60 22 19 10 27 -48 35 -391 51 -747
246 -979 536 -140 175 -260 455 -293 684 -9 64 -20 85 -28 56z"/>
<path d="M1062 2245 c0 -11 4 -31 8 -45 6 -20 8 -21 8 -5 0 11 -4 31 -8 45 -6
20 -8 21 -8 5z"/>
<path d="M1081 2154 c0 -11 3 -14 6 -6 3 7 2 16 -1 19 -3 4 -6 -2 -5 -13z"/>
<path d="M1640 2071 c0 -25 90 -150 156 -218 72 -73 68 -62 -10 26 -26 30 -69
88 -97 130 -27 41 -49 69 -49 62z"/>
<path d="M3529 1763 c-13 -16 -12 -17 4 -4 9 7 17 15 17 17 0 8 -8 3 -21 -13z"/>
<path d="M3550 1488 c-285 -232 -541 -348 -841 -381 -108 -12 -114 -14 -117
-36 l-4 -24 89 7 c305 24 596 149 833 358 58 51 135 136 129 142 -2 2 -42 -28
-89 -66z"/>
<path d="M1970 1455 c0 -7 113 -70 150 -82 66 -22 220 -55 237 -50 15 4 14 5
-3 6 -27 1 -232 72 -309 106 -56 24 -75 30 -75 20z"/>
<path d="M2393 1313 c9 -2 25 -2 35 0 9 3 1 5 -18 5 -19 0 -27 -2 -17 -5z"/>
<path d="M2513 1303 c15 -2 39 -2 55 0 15 2 2 4 -28 4 -30 0 -43 -2 -27 -4z"/>
</g>
</svg>